<svg id="visual" viewBox="0 0 900 600" width="900" height="600" xmlns="http://www.w3.org/2000/svg" xmlns:xlink="http://www.w3.org/1999/xlink" version="1.1"><rect x="0" y="0" width="900" height="600" fill="#001220"></rect><path d="M0 372L21.5 372.2C43 372.3 86 372.7 128.8 383.7C171.7 394.7 214.3 416.3 257.2 415.7C300 415 343 392 385.8 391.2C428.7 390.3 471.3 411.7 514.2 423.2C557 434.7 600 436.3 642.8 430.2C685.7 424 728.3 410 771.2 408.8C814 407.7 857 419.3 878.5 425.2L900 431L900 601L878.5 601C857 601 814 601 771.2 601C728.3 601 685.7 601 642.8 601C600 601 557 601 514.2 601C471.3 601 428.7 601 385.8 601C343 601 300 601 257.2 601C214.3 601 171.7 601 128.8 601C86 601 43 601 21.5 601L0 601Z" fill="#fa7268"></path><path d="M0 448L21.5 450.3C43 452.7 86 457.3 128.8 458.7C171.7 460 214.3 458 257.2 450.2C300 442.3 343 428.7 385.8 419.3C428.7 410 471.3 405 514.2 408.2C557 411.3 600 422.7 642.8 424.7C685.7 426.7 728.3 419.3 771.2 420C814 420.7 857 429.3 878.5 433.7L900 438L900 601L878.5 601C857 601 814 601 771.2 601C728.3 601 685.7 601 642.8 601C600 601 557 601 514.2 601C471.3 601 428.7 601 385.8 601C343 601 300 601 257.2 601C214.3 601 171.7 601 128.8 601C86 601 43 601 21.5 601L0 601Z" fill="#ef5f67"></path><path d="M0 484L21.5 482.7C43 481.3 86 478.7 128.8 474.7C171.7 470.7 214.3 465.3 257.2 465.2C300 465 343 470 385.8 471.5C428.7 473 471.3 471 514.2 472.7C557 474.3 600 479.7 642.8 481C685.7 482.3 728.3 479.7 771.2 473C814 466.3 857 455.7 878.5 450.3L900 445L900 601L878.5 601C857 601 814 601 771.2 601C728.3 601 685.7 601 642.8 601C600 601 557 601 514.2 601C471.3 601 428.7 601 385.8 601C343 601 300 601 257.2 601C214.3 601 171.7 601 128.8 601C86 601 43 601 21.5 601L0 601Z" fill="#e34c67"></path><path d="M0 504L21.5 506.5C43 509 86 514 128.8 511.7C171.7 509.3 214.3 499.7 257.2 498.7C300 497.7 343 505.3 385.8 506C428.7 506.7 471.3 500.3 514.2 496.2C557 492 600 490 642.8 492.2C685.7 494.3 728.3 500.7 771.2 506.7C814 512.7 857 518.3 878.5 521.2L900 524L900 601L878.5 601C857 601 814 601 771.2 601C728.3 601 685.7 601 642.8 601C600 601 557 601 514.2 601C471.3 601 428.7 601 385.8 601C343 601 300 601 257.2 601C214.3 601 171.7 601 128.8 601C86 601 43 601 21.5 601L0 601Z" fill="#d53867"></path><path d="M0 528L21.5 529.2C43 530.3 86 532.7 128.8 536.2C171.7 539.7 214.3 544.3 257.2 543.2C300 542 343 535 385.8 533.2C428.7 531.3 471.3 534.7 514.2 536.2C557 537.7 600 537.3 642.8 539C685.7 540.7 728.3 544.3 771.2 547.2C814 550 857 552 878.5 553L900 554L900 601L878.5 601C857 601 814 601 771.2 601C728.3 601 685.7 601 642.8 601C600 601 557 601 514.2 601C471.3 601 428.7 601 385.8 601C343 601 300 601 257.2 601C214.3 601 171.7 601 128.8 601C86 601 43 601 21.5 601L0 601Z" fill="#c62368"></path></svg>