<svg id="visual" viewBox="0 0 900 600" width="900" height="600" xmlns="http://www.w3.org/2000/svg" xmlns:xlink="http://www.w3.org/1999/xlink" version="1.1"><rect x="0" y="0" width="900" height="600" fill="#001220"></rect><path d="M0 255L10.7 249.8C21.3 244.7 42.7 234.3 64.2 242.2C85.7 250 107.3 276 128.8 282.8C150.3 289.7 171.7 277.3 193 276.5C214.3 275.7 235.7 286.3 257 275.5C278.3 264.7 299.7 232.3 321.2 219.2C342.7 206 364.3 212 385.8 225.2C407.3 238.3 428.7 258.7 450 263.5C471.3 268.3 492.7 257.7 514.2 250.2C535.7 242.7 557.3 238.3 578.8 248.3C600.3 258.3 621.7 282.7 643 301.3C664.3 320 685.7 333 707 339.5C728.3 346 749.7 346 771.2 335.2C792.7 324.3 814.3 302.7 835.8 297.7C857.3 292.7 878.7 304.3 889.3 310.2L900 316L900 0L889.3 0C878.7 0 857.3 0 835.8 0C814.3 0 792.7 0 771.2 0C749.7 0 728.3 0 707 0C685.7 0 664.3 0 643 0C621.7 0 600.3 0 578.8 0C557.3 0 535.7 0 514.2 0C492.7 0 471.3 0 450 0C428.7 0 407.3 0 385.8 0C364.3 0 342.7 0 321.2 0C299.7 0 278.3 0 257 0C235.7 0 214.3 0 193 0C171.7 0 150.3 0 128.8 0C107.3 0 85.7 0 64.2 0C42.7 0 21.3 0 10.7 0L0 0Z" fill="#fa7268"></path><path d="M0 281L10.7 286C21.3 291 42.7 301 64.2 299.7C85.7 298.3 107.3 285.7 128.8 270.5C150.3 255.3 171.7 237.7 193 220.3C214.3 203 235.7 186 257 181.7C278.3 177.3 299.7 185.7 321.2 193.7C342.7 201.7 364.3 209.3 385.8 207.7C407.3 206 428.7 195 450 192.2C471.3 189.3 492.7 194.7 514.2 215.7C535.7 236.7 557.3 273.3 578.8 287C600.3 300.7 621.7 291.3 643 273C664.3 254.7 685.7 227.3 707 220C728.3 212.7 749.7 225.3 771.2 218.8C792.7 212.3 814.3 186.7 835.8 196.8C857.3 207 878.7 253 889.3 276L900 299L900 0L889.3 0C878.7 0 857.3 0 835.8 0C814.3 0 792.7 0 771.2 0C749.7 0 728.3 0 707 0C685.7 0 664.3 0 643 0C621.7 0 600.3 0 578.8 0C557.3 0 535.7 0 514.2 0C492.7 0 471.3 0 450 0C428.7 0 407.3 0 385.8 0C364.3 0 342.7 0 321.2 0C299.7 0 278.3 0 257 0C235.7 0 214.3 0 193 0C171.7 0 150.3 0 128.8 0C107.3 0 85.7 0 64.2 0C42.7 0 21.3 0 10.7 0L0 0Z" fill="#f56967"></path><path d="M0 231L10.7 233.7C21.3 236.3 42.7 241.7 64.2 243.5C85.7 245.3 107.3 243.7 128.8 231C150.3 218.3 171.7 194.7 193 177.3C214.3 160 235.7 149 257 150.5C278.3 152 299.7 166 321.2 170.2C342.7 174.3 364.3 168.7 385.8 164C407.3 159.3 428.7 155.7 450 166.2C471.3 176.7 492.7 201.3 514.2 213.8C535.7 226.3 557.3 226.7 578.8 223C600.3 219.3 621.7 211.7 643 219.2C664.3 226.7 685.7 249.3 707 245.5C728.3 241.7 749.7 211.3 771.2 202.7C792.7 194 814.3 207 835.8 214C857.3 221 878.7 222 889.3 222.5L900 223L900 0L889.3 0C878.7 0 857.3 0 835.8 0C814.3 0 792.7 0 771.2 0C749.7 0 728.3 0 707 0C685.7 0 664.3 0 643 0C621.7 0 600.3 0 578.8 0C557.3 0 535.7 0 514.2 0C492.7 0 471.3 0 450 0C428.7 0 407.3 0 385.8 0C364.3 0 342.7 0 321.2 0C299.7 0 278.3 0 257 0C235.7 0 214.3 0 193 0C171.7 0 150.3 0 128.8 0C107.3 0 85.7 0 64.2 0C42.7 0 21.3 0 10.7 0L0 0Z" fill="#ef5f67"></path><path d="M0 125L10.7 138.3C21.3 151.7 42.7 178.3 64.2 187.5C85.7 196.7 107.3 188.3 128.8 191.3C150.3 194.3 171.7 208.7 193 215.3C214.3 222 235.7 221 257 209.5C278.3 198 299.7 176 321.2 160.3C342.7 144.7 364.3 135.3 385.8 141.2C407.3 147 428.7 168 450 174C471.3 180 492.7 171 514.2 168.3C535.7 165.7 557.3 169.3 578.8 168C600.3 166.7 621.7 160.3 643 162.7C664.3 165 685.7 176 707 181.8C728.3 187.7 749.7 188.3 771.2 191.3C792.7 194.3 814.3 199.7 835.8 200.8C857.3 202 878.7 199 889.3 197.5L900 196L900 0L889.3 0C878.7 0 857.3 0 835.8 0C814.3 0 792.7 0 771.2 0C749.7 0 728.3 0 707 0C685.7 0 664.3 0 643 0C621.7 0 600.3 0 578.8 0C557.3 0 535.7 0 514.2 0C492.7 0 471.3 0 450 0C428.7 0 407.3 0 385.8 0C364.3 0 342.7 0 321.2 0C299.7 0 278.3 0 257 0C235.7 0 214.3 0 193 0C171.7 0 150.3 0 128.8 0C107.3 0 85.7 0 64.2 0C42.7 0 21.3 0 10.7 0L0 0Z" fill="#e95667"></path><path d="M0 217L10.7 213.5C21.3 210 42.7 203 64.2 198.8C85.7 194.7 107.3 193.3 128.8 177.7C150.3 162 171.7 132 193 135.8C214.3 139.7 235.7 177.3 257 195C278.3 212.7 299.7 210.3 321.2 200C342.7 189.7 364.3 171.3 385.8 156.3C407.3 141.3 428.7 129.7 450 122.8C471.3 116 492.7 114 514.2 116.3C535.7 118.7 557.3 125.3 578.8 125.3C600.3 125.3 621.7 118.7 643 116.7C664.3 114.7 685.7 117.3 707 115.5C728.3 113.7 749.7 107.3 771.2 107.8C792.7 108.3 814.3 115.7 835.8 134.7C857.3 153.7 878.7 184.3 889.3 199.7L900 215L900 0L889.3 0C878.7 0 857.3 0 835.8 0C814.3 0 792.7 0 771.2 0C749.7 0 728.3 0 707 0C685.7 0 664.3 0 643 0C621.7 0 600.3 0 578.8 0C557.3 0 535.7 0 514.2 0C492.7 0 471.3 0 450 0C428.7 0 407.3 0 385.8 0C364.3 0 342.7 0 321.2 0C299.7 0 278.3 0 257 0C235.7 0 214.3 0 193 0C171.7 0 150.3 0 128.8 0C107.3 0 85.7 0 64.2 0C42.7 0 21.3 0 10.7 0L0 0Z" fill="#e34c67"></path><path d="M0 88L10.7 96C21.3 104 42.7 120 64.2 133C85.7 146 107.3 156 128.8 147C150.3 138 171.7 110 193 111.7C214.3 113.3 235.7 144.7 257 156C278.3 167.3 299.7 158.7 321.2 155.7C342.7 152.7 364.3 155.3 385.8 152.2C407.3 149 428.7 140 450 135.2C471.3 130.3 492.7 129.7 514.2 135.8C535.7 142 557.3 155 578.8 152.2C600.3 149.3 621.7 130.7 643 119C664.3 107.3 685.7 102.7 707 99C728.3 95.3 749.7 92.7 771.2 106C792.7 119.3 814.3 148.7 835.8 160.3C857.3 172 878.7 166 889.3 163L900 160L900 0L889.3 0C878.7 0 857.3 0 835.8 0C814.3 0 792.7 0 771.2 0C749.7 0 728.3 0 707 0C685.7 0 664.3 0 643 0C621.7 0 600.3 0 578.8 0C557.3 0 535.7 0 514.2 0C492.7 0 471.3 0 450 0C428.7 0 407.3 0 385.8 0C364.3 0 342.7 0 321.2 0C299.7 0 278.3 0 257 0C235.7 0 214.3 0 193 0C171.7 0 150.3 0 128.8 0C107.3 0 85.7 0 64.2 0C42.7 0 21.3 0 10.7 0L0 0Z" fill="#dc4267"></path><path d="M0 117L10.7 121.2C21.3 125.3 42.7 133.7 64.2 131.7C85.7 129.7 107.3 117.3 128.8 104.2C150.3 91 171.7 77 193 83.8C214.3 90.7 235.7 118.3 257 126.3C278.3 134.3 299.7 122.7 321.2 112.2C342.7 101.7 364.3 92.3 385.8 94.7C407.3 97 428.7 111 450 112.3C471.3 113.7 492.7 102.3 514.2 91.8C535.7 81.3 557.3 71.7 578.8 75.8C600.3 80 621.7 98 643 103C664.3 108 685.7 100 707 94.7C728.3 89.3 749.7 86.7 771.2 95.2C792.7 103.7 814.3 123.3 835.8 128.7C857.3 134 878.7 125 889.3 120.5L900 116L900 0L889.3 0C878.7 0 857.3 0 835.8 0C814.3 0 792.7 0 771.2 0C749.7 0 728.3 0 707 0C685.7 0 664.3 0 643 0C621.7 0 600.3 0 578.8 0C557.3 0 535.7 0 514.2 0C492.7 0 471.3 0 450 0C428.7 0 407.3 0 385.8 0C364.3 0 342.7 0 321.2 0C299.7 0 278.3 0 257 0C235.7 0 214.3 0 193 0C171.7 0 150.3 0 128.8 0C107.3 0 85.7 0 64.2 0C42.7 0 21.3 0 10.7 0L0 0Z" fill="#d53867"></path><path d="M0 63L10.7 61.2C21.3 59.3 42.7 55.7 64.2 58.5C85.7 61.3 107.3 70.7 128.8 80C150.3 89.3 171.7 98.7 193 96.8C214.3 95 235.7 82 257 81C278.3 80 299.7 91 321.2 94.3C342.7 97.7 364.3 93.3 385.8 88.3C407.3 83.3 428.7 77.7 450 68.5C471.3 59.3 492.7 46.7 514.2 49.2C535.7 51.7 557.3 69.3 578.8 75.5C600.3 81.7 621.7 76.3 643 70.2C664.3 64 685.7 57 707 53.3C728.3 49.7 749.7 49.3 771.2 48.2C792.7 47 814.3 45 835.8 44.3C857.3 43.7 878.7 44.3 889.3 44.7L900 45L900 0L889.3 0C878.7 0 857.3 0 835.8 0C814.3 0 792.7 0 771.2 0C749.7 0 728.3 0 707 0C685.7 0 664.3 0 643 0C621.7 0 600.3 0 578.8 0C557.3 0 535.7 0 514.2 0C492.7 0 471.3 0 450 0C428.7 0 407.3 0 385.8 0C364.3 0 342.7 0 321.2 0C299.7 0 278.3 0 257 0C235.7 0 214.3 0 193 0C171.7 0 150.3 0 128.8 0C107.3 0 85.7 0 64.2 0C42.7 0 21.3 0 10.7 0L0 0Z" fill="#ce2e68"></path><path d="M0 43L10.7 41.7C21.3 40.3 42.7 37.7 64.2 37.2C85.7 36.7 107.3 38.3 128.8 40C150.3 41.7 171.7 43.3 193 42C214.3 40.7 235.7 36.3 257 37.3C278.3 38.3 299.7 44.7 321.2 42C342.7 39.3 364.3 27.7 385.8 24.5C407.3 21.3 428.7 26.7 450 29.7C471.3 32.7 492.7 33.3 514.2 33.8C535.7 34.3 557.3 34.7 578.8 33.3C600.3 32 621.7 29 643 26.8C664.3 24.7 685.7 23.3 707 29.7C728.3 36 749.7 50 771.2 56.7C792.7 63.3 814.3 62.7 835.8 57C857.3 51.3 878.7 40.7 889.3 35.3L900 30L900 0L889.3 0C878.7 0 857.3 0 835.8 0C814.3 0 792.7 0 771.2 0C749.7 0 728.3 0 707 0C685.7 0 664.3 0 643 0C621.7 0 600.3 0 578.8 0C557.3 0 535.7 0 514.2 0C492.7 0 471.3 0 450 0C428.7 0 407.3 0 385.8 0C364.3 0 342.7 0 321.2 0C299.7 0 278.3 0 257 0C235.7 0 214.3 0 193 0C171.7 0 150.3 0 128.8 0C107.3 0 85.7 0 64.2 0C42.7 0 21.3 0 10.7 0L0 0Z" fill="#c62368"></path></svg>